<svg xmlns="http://www.w3.org/2000/svg" viewBox="0 0 100 100">
  <rect width="100" height="100" rx="20" fill="#FFFC00"/>
  <path fill="white" stroke="#111" stroke-width="3" stroke-linejoin="round"
    d="M50,12 C34,12 22,23 22,37 C22,41 22.5,45 23,49
       C21,49.5 18,49 16,48 C14.5,47.5 13,48 12,49 C11,50.5 11.5,52 13,53
       C16,54.5 19.5,55.5 23.5,56.5
       C24.5,59 25.5,62 27,65
       C22,67.5 16,71 16,75 C16,77 17.5,78.5 20,79
       C23,79.8 27,79 31,77.5 C35,76 39,75.5 43,76.5
       C45,77 47,78.5 49,80 C50,81 51,81.5 52,81.5
       C53,81.5 54,81 55,80 C57,78.5 59,77 61,76.5
       C65,75.5 69,76 73,77.5 C77,79 81,79.8 84,79
       C86.5,78.5 88,77 88,75 C88,71 82,67.5 77,65
       C78.5,62 79.5,59 80.5,56.5
       C84.5,55.5 88,54.5 91,53 C92.5,52 93,50.5 92,49
       C91,48 89.5,47.5 88,48 C86,49 83,49.5 81,49
       C81.5,45 82,41 82,37 C82,23 70,12 54,12 Z"/>
</svg>
